<?xml version="1.0" encoding="UTF-8" standalone="no"?>
<!DOCTYPE svg PUBLIC "-//W3C//DTD SVG 1.1//EN"
 "http://www.w3.org/Graphics/SVG/1.1/DTD/svg11.dtd">
<!-- Generated by graphviz version 2.38.0 (20140413.2041)
 -->
<!-- Title: Genome Assembly Protocol Pages: 1 -->
<svg width="157pt" height="479pt"
 viewBox="0.00 0.00 156.54 479.00" xmlns="http://www.w3.org/2000/svg" xmlns:xlink="http://www.w3.org/1999/xlink">
<g id="graph0" class="graph" transform="scale(1 1) rotate(0) translate(4 475)">
<title>Genome Assembly Protocol</title>
<polygon fill="white" stroke="none" points="-4,4 -4,-475 152.544,-475 152.544,4 -4,4"/>
<!-- A -->
<g id="node1" class="node"><title>A</title>
<ellipse fill="none" stroke="black" cx="69.5438" cy="-453" rx="46.2923" ry="18"/>
<text text-anchor="middle" x="69.5438" y="-449.3" font-family="Times New Roman,serif" font-size="14.00">Trimming</text>
</g>
<!-- B -->
<g id="node2" class="node"><title>B</title>
<ellipse fill="none" stroke="black" cx="69.5438" cy="-366" rx="42.7926" ry="18"/>
<text text-anchor="middle" x="69.5438" y="-362.3" font-family="Times New Roman,serif" font-size="14.00">Mapping</text>
</g>
<!-- A&#45;&gt;B -->
<g id="edge1" class="edge"><title>A&#45;&gt;B</title>
<path fill="none" stroke="black" d="M69.5438,-434.799C69.5438,-423.163 69.5438,-407.548 69.5438,-394.237"/>
<polygon fill="black" stroke="black" points="73.0439,-394.175 69.5438,-384.175 66.0439,-394.175 73.0439,-394.175"/>
<text text-anchor="middle" x="109.044" y="-405.8" font-family="Times New Roman,serif" font-size="14.00"> Trimmomatic</text>
</g>
<!-- C -->
<g id="node3" class="node"><title>C</title>
<ellipse fill="none" stroke="black" cx="69.5438" cy="-279" rx="69.5877" ry="18"/>
<text text-anchor="middle" x="69.5438" y="-275.3" font-family="Times New Roman,serif" font-size="14.00">Best Candidates</text>
</g>
<!-- B&#45;&gt;C -->
<g id="edge2" class="edge"><title>B&#45;&gt;C</title>
<path fill="none" stroke="black" d="M69.5438,-347.799C69.5438,-336.163 69.5438,-320.548 69.5438,-307.237"/>
<polygon fill="black" stroke="black" points="73.0439,-307.175 69.5438,-297.175 66.0439,-307.175 73.0439,-307.175"/>
<text text-anchor="middle" x="100.544" y="-318.8" font-family="Times New Roman,serif" font-size="14.00"> Bwa&#45;Mem</text>
</g>
<!-- D -->
<g id="node4" class="node"><title>D</title>
<ellipse fill="none" stroke="black" cx="69.5438" cy="-192" rx="65.7887" ry="18"/>
<text text-anchor="middle" x="69.5438" y="-188.3" font-family="Times New Roman,serif" font-size="14.00">Filtering Reads</text>
</g>
<!-- C&#45;&gt;D -->
<g id="edge3" class="edge"><title>C&#45;&gt;D</title>
<path fill="none" stroke="black" d="M69.5438,-260.799C69.5438,-249.163 69.5438,-233.548 69.5438,-220.237"/>
<polygon fill="black" stroke="black" points="73.0439,-220.175 69.5438,-210.175 66.0439,-220.175 73.0439,-220.175"/>
<text text-anchor="middle" x="91.5438" y="-231.8" font-family="Times New Roman,serif" font-size="14.00"> Python</text>
</g>
<!-- E -->
<g id="node5" class="node"><title>E</title>
<ellipse fill="none" stroke="black" cx="69.5438" cy="-105" rx="46.5926" ry="18"/>
<text text-anchor="middle" x="69.5438" y="-101.3" font-family="Times New Roman,serif" font-size="14.00">Assembly</text>
</g>
<!-- D&#45;&gt;E -->
<g id="edge4" class="edge"><title>D&#45;&gt;E</title>
<path fill="none" stroke="black" d="M69.5438,-173.799C69.5438,-162.163 69.5438,-146.548 69.5438,-133.237"/>
<polygon fill="black" stroke="black" points="73.0439,-133.175 69.5438,-123.175 66.0439,-133.175 73.0439,-133.175"/>
<text text-anchor="middle" x="88.0438" y="-144.8" font-family="Times New Roman,serif" font-size="14.00"> Phrap</text>
</g>
<!-- G -->
<g id="node6" class="node"><title>G</title>
<ellipse fill="none" stroke="black" cx="69.5438" cy="-18" rx="52.7911" ry="18"/>
<text text-anchor="middle" x="69.5438" y="-14.3" font-family="Times New Roman,serif" font-size="14.00">Scaffolding</text>
</g>
<!-- E&#45;&gt;G -->
<g id="edge5" class="edge"><title>E&#45;&gt;G</title>
<path fill="none" stroke="black" d="M69.5438,-86.799C69.5438,-75.1626 69.5438,-59.5479 69.5438,-46.2368"/>
<polygon fill="black" stroke="black" points="73.0439,-46.1754 69.5438,-36.1754 66.0439,-46.1755 73.0439,-46.1754"/>
<text text-anchor="middle" x="94.5438" y="-57.8" font-family="Times New Roman,serif" font-size="14.00"> SPAdes</text>
</g>
</g>
</svg>
